<svg width="19" height="17" viewBox="0 0 19 17" fill="none" xmlns="http://www.w3.org/2000/svg">
<path d="M8.14286 12.6667V3.61905H1.80952V12.6667H8.14286ZM8.14286 0C8.62277 0 9.08303 0.190646 9.42238 0.529997C9.76173 0.869349 9.95238 1.32961 9.95238 1.80952V14.4762C9.95238 14.9561 9.76173 15.4164 9.42238 15.7557C9.08303 16.0951 8.62277 16.2857 8.14286 16.2857H1.80952C0.805238 16.2857 0 15.4714 0 14.4762V1.80952C0 1.32961 0.190646 0.869349 0.529997 0.529997C0.869349 0.190646 1.32961 0 1.80952 0H8.14286ZM13.119 0H17.6429C18.0028 0 18.348 0.142984 18.6025 0.397498C18.857 0.652012 19 0.997206 19 1.35714V4.07143C19 4.43137 18.857 4.77656 18.6025 5.03107C18.348 5.28559 18.0028 5.42857 17.6429 5.42857H14.4762L11.7619 8.14286V5.42857V1.35714C11.7619 0.997206 11.9049 0.652012 12.1594 0.397498C12.4139 0.142984 12.7591 0 13.119 0Z" fill="#006BEE"/>
</svg>
